<svg width="113" height="66" viewBox="0 0 113 66" fill="none" xmlns="http://www.w3.org/2000/svg">
<path d="M7.27609 36.4595C5.97334 35.0498 4.9448 33.8621 4.22114 33C4.9448 32.1379 5.97334 30.9502 7.27609 29.5405C10.0744 26.5125 14.1228 22.4764 19.1184 18.4456C29.1762 10.33 42.7458 2.5 57.5 2.5C72.2542 2.5 85.8238 10.33 95.8816 18.4456C100.877 22.4764 104.926 26.5125 107.724 29.5405C109.027 30.9502 110.055 32.1379 110.779 33C110.055 33.8621 109.027 35.0498 107.724 36.4595C104.926 39.4875 100.877 43.5236 95.8816 47.5544C85.8238 55.67 72.2542 63.5 57.5 63.5C42.7458 63.5 29.1762 55.67 19.1184 47.5544C14.1228 43.5236 10.0744 39.4875 7.27609 36.4595Z" stroke="black" stroke-width="5"/>
<circle cx="57.5" cy="33.5" r="18.5" fill="black"/>
<line x1="1.07793" y1="3.74433" x2="114.078" y2="57.7443" stroke="black" stroke-width="5"/>
</svg>
